<mxfile host="app.diagrams.net" modified="2022-12-09T16:08:51.188Z" agent="5.0 (Windows NT 10.0; Win64; x64) AppleWebKit/537.36 (KHTML, like Gecko) Chrome/108.0.0.0 Safari/537.36" version="20.6.2" etag="UbcHaLGuRipLvMTlOhdj" type="github">
  <diagram id="YfHggfGEkHGyY5ZpthUL" name="Página-1">
    <mxGraphModel dx="1673" dy="981" grid="1" gridSize="10" guides="1" tooltips="1" connect="1" arrows="1" fold="1" page="1" pageScale="1" pageWidth="827" pageHeight="1169" math="0" shadow="0">
      <root>
        <mxCell id="0" />
        <mxCell id="1" parent="0" />
        <mxCell id="VKb4tAb5DwJ0hD_UQ2BQ-4" style="edgeStyle=orthogonalEdgeStyle;rounded=0;orthogonalLoop=1;jettySize=auto;html=1;entryX=0.855;entryY=0.145;entryDx=0;entryDy=0;entryPerimeter=0;" edge="1" parent="1" source="VKb4tAb5DwJ0hD_UQ2BQ-1" target="VKb4tAb5DwJ0hD_UQ2BQ-17">
          <mxGeometry relative="1" as="geometry">
            <mxPoint x="299" y="549" as="targetPoint" />
            <Array as="points">
              <mxPoint x="340" y="406" />
              <mxPoint x="340" y="549" />
              <mxPoint x="289" y="549" />
            </Array>
          </mxGeometry>
        </mxCell>
        <mxCell id="VKb4tAb5DwJ0hD_UQ2BQ-7" style="edgeStyle=orthogonalEdgeStyle;rounded=0;orthogonalLoop=1;jettySize=auto;html=1;entryX=0.5;entryY=0;entryDx=0;entryDy=0;entryPerimeter=0;" edge="1" parent="1" source="VKb4tAb5DwJ0hD_UQ2BQ-1" target="VKb4tAb5DwJ0hD_UQ2BQ-6">
          <mxGeometry relative="1" as="geometry" />
        </mxCell>
        <mxCell id="VKb4tAb5DwJ0hD_UQ2BQ-12" style="edgeStyle=orthogonalEdgeStyle;rounded=0;orthogonalLoop=1;jettySize=auto;html=1;exitX=0.145;exitY=0.145;exitDx=0;exitDy=0;exitPerimeter=0;" edge="1" parent="1" source="VKb4tAb5DwJ0hD_UQ2BQ-1" target="VKb4tAb5DwJ0hD_UQ2BQ-11">
          <mxGeometry relative="1" as="geometry" />
        </mxCell>
        <mxCell id="VKb4tAb5DwJ0hD_UQ2BQ-1" value="" style="outlineConnect=0;dashed=0;verticalLabelPosition=bottom;verticalAlign=top;align=center;html=1;shape=mxgraph.aws3.router;fillColor=#F58536;gradientColor=none;" vertex="1" parent="1">
          <mxGeometry x="370" y="370" width="69" height="72" as="geometry" />
        </mxCell>
        <mxCell id="VKb4tAb5DwJ0hD_UQ2BQ-2" value="Router Main - Mikrotik" style="text;html=1;resizable=0;autosize=1;align=center;verticalAlign=middle;points=[];fillColor=default;strokeColor=none;rounded=0;gradientColor=#CCFFFF;" vertex="1" parent="1">
          <mxGeometry x="355" y="442" width="140" height="30" as="geometry" />
        </mxCell>
        <mxCell id="VKb4tAb5DwJ0hD_UQ2BQ-5" value="Sophos - Firewall&lt;br&gt;" style="text;html=1;resizable=0;autosize=1;align=center;verticalAlign=middle;points=[];fillColor=default;strokeColor=none;rounded=0;gradientColor=#CCFFFF;" vertex="1" parent="1">
          <mxGeometry x="204.5" y="480" width="120" height="30" as="geometry" />
        </mxCell>
        <mxCell id="VKb4tAb5DwJ0hD_UQ2BQ-9" style="edgeStyle=orthogonalEdgeStyle;rounded=0;orthogonalLoop=1;jettySize=auto;html=1;exitX=0;exitY=0.5;exitDx=0;exitDy=0;exitPerimeter=0;entryX=1;entryY=0.5;entryDx=0;entryDy=0;entryPerimeter=0;" edge="1" parent="1" source="VKb4tAb5DwJ0hD_UQ2BQ-6" target="VKb4tAb5DwJ0hD_UQ2BQ-17">
          <mxGeometry relative="1" as="geometry">
            <mxPoint x="264.5" y="585" as="targetPoint" />
          </mxGeometry>
        </mxCell>
        <mxCell id="VKb4tAb5DwJ0hD_UQ2BQ-6" value="" style="outlineConnect=0;dashed=0;verticalLabelPosition=bottom;verticalAlign=top;align=center;html=1;shape=mxgraph.aws3.application_load_balancer;fillColor=#F58534;gradientColor=none;" vertex="1" parent="1">
          <mxGeometry x="560" y="543" width="69" height="72" as="geometry" />
        </mxCell>
        <mxCell id="VKb4tAb5DwJ0hD_UQ2BQ-8" value="Switch a Red Interna" style="text;html=1;resizable=0;autosize=1;align=center;verticalAlign=middle;points=[];fillColor=default;strokeColor=none;rounded=0;gradientColor=#CCFFFF;" vertex="1" parent="1">
          <mxGeometry x="529.5" y="620" width="130" height="30" as="geometry" />
        </mxCell>
        <mxCell id="VKb4tAb5DwJ0hD_UQ2BQ-10" value="Camino a Gateway" style="text;html=1;resizable=0;autosize=1;align=center;verticalAlign=middle;points=[];fillColor=default;strokeColor=none;rounded=0;gradientColor=#CCFFFF;" vertex="1" parent="1">
          <mxGeometry x="365" y="555" width="130" height="30" as="geometry" />
        </mxCell>
        <mxCell id="VKb4tAb5DwJ0hD_UQ2BQ-11" value="" style="outlineConnect=0;dashed=0;verticalLabelPosition=bottom;verticalAlign=top;align=center;html=1;shape=mxgraph.aws3.internet_gateway;fillColor=#F58534;gradientColor=none;" vertex="1" parent="1">
          <mxGeometry x="250" y="230" width="69" height="72" as="geometry" />
        </mxCell>
        <mxCell id="VKb4tAb5DwJ0hD_UQ2BQ-13" value="Conexión de Fibra" style="text;html=1;resizable=0;autosize=1;align=center;verticalAlign=middle;points=[];fillColor=default;strokeColor=none;rounded=0;gradientColor=#CCFFFF;" vertex="1" parent="1">
          <mxGeometry x="120" y="251" width="120" height="30" as="geometry" />
        </mxCell>
        <mxCell id="VKb4tAb5DwJ0hD_UQ2BQ-15" style="edgeStyle=orthogonalEdgeStyle;rounded=0;orthogonalLoop=1;jettySize=auto;html=1;entryX=0.855;entryY=0.145;entryDx=0;entryDy=0;entryPerimeter=0;" edge="1" parent="1" source="VKb4tAb5DwJ0hD_UQ2BQ-14" target="VKb4tAb5DwJ0hD_UQ2BQ-1">
          <mxGeometry relative="1" as="geometry">
            <Array as="points">
              <mxPoint x="490" y="266" />
              <mxPoint x="490" y="380" />
            </Array>
          </mxGeometry>
        </mxCell>
        <mxCell id="VKb4tAb5DwJ0hD_UQ2BQ-14" value="" style="outlineConnect=0;dashed=0;verticalLabelPosition=bottom;verticalAlign=top;align=center;html=1;shape=mxgraph.aws3.internet_gateway;fillColor=#F58534;gradientColor=none;" vertex="1" parent="1">
          <mxGeometry x="580" y="230" width="69" height="72" as="geometry" />
        </mxCell>
        <mxCell id="VKb4tAb5DwJ0hD_UQ2BQ-16" value="Conexión de&amp;nbsp; Radio" style="text;html=1;resizable=0;autosize=1;align=center;verticalAlign=middle;points=[];fillColor=default;strokeColor=none;rounded=1;shadow=1;" vertex="1" parent="1">
          <mxGeometry x="649" y="251" width="130" height="30" as="geometry" />
        </mxCell>
        <mxCell id="VKb4tAb5DwJ0hD_UQ2BQ-17" value="" style="outlineConnect=0;dashed=0;verticalLabelPosition=bottom;verticalAlign=top;align=center;html=1;shape=mxgraph.aws3.internet_gateway;fillColor=#F58534;gradientColor=none;" vertex="1" parent="1">
          <mxGeometry x="230" y="543" width="69" height="72" as="geometry" />
        </mxCell>
        <mxCell id="VKb4tAb5DwJ0hD_UQ2BQ-29" style="edgeStyle=orthogonalEdgeStyle;rounded=0;orthogonalLoop=1;jettySize=auto;html=1;exitX=0.5;exitY=1;exitDx=0;exitDy=0;exitPerimeter=0;entryX=0.5;entryY=0;entryDx=0;entryDy=0;entryPerimeter=0;" edge="1" parent="1" source="VKb4tAb5DwJ0hD_UQ2BQ-18" target="VKb4tAb5DwJ0hD_UQ2BQ-1">
          <mxGeometry relative="1" as="geometry" />
        </mxCell>
        <mxCell id="VKb4tAb5DwJ0hD_UQ2BQ-18" value="" style="outlineConnect=0;dashed=0;verticalLabelPosition=bottom;verticalAlign=top;align=center;html=1;shape=mxgraph.aws3.vpn_connection;fillColor=#F58534;gradientColor=none;" vertex="1" parent="1">
          <mxGeometry x="344.5" y="60" width="58.5" height="48" as="geometry" />
        </mxCell>
        <mxCell id="VKb4tAb5DwJ0hD_UQ2BQ-30" style="edgeStyle=orthogonalEdgeStyle;rounded=0;orthogonalLoop=1;jettySize=auto;html=1;entryX=0.5;entryY=0;entryDx=0;entryDy=0;entryPerimeter=0;" edge="1" parent="1" source="VKb4tAb5DwJ0hD_UQ2BQ-19" target="VKb4tAb5DwJ0hD_UQ2BQ-1">
          <mxGeometry relative="1" as="geometry" />
        </mxCell>
        <mxCell id="VKb4tAb5DwJ0hD_UQ2BQ-19" value="" style="outlineConnect=0;dashed=0;verticalLabelPosition=bottom;verticalAlign=top;align=center;html=1;shape=mxgraph.aws3.vpn_connection;fillColor=#F58534;gradientColor=none;" vertex="1" parent="1">
          <mxGeometry x="414" y="60" width="58.5" height="48" as="geometry" />
        </mxCell>
        <mxCell id="VKb4tAb5DwJ0hD_UQ2BQ-32" style="edgeStyle=orthogonalEdgeStyle;rounded=0;orthogonalLoop=1;jettySize=auto;html=1;exitX=0.2;exitY=1;exitDx=0;exitDy=0;exitPerimeter=0;entryX=0.5;entryY=0;entryDx=0;entryDy=0;entryPerimeter=0;" edge="1" parent="1" source="VKb4tAb5DwJ0hD_UQ2BQ-20" target="VKb4tAb5DwJ0hD_UQ2BQ-1">
          <mxGeometry relative="1" as="geometry" />
        </mxCell>
        <mxCell id="VKb4tAb5DwJ0hD_UQ2BQ-20" value="" style="outlineConnect=0;dashed=0;verticalLabelPosition=bottom;verticalAlign=top;align=center;html=1;shape=mxgraph.aws3.vpn_connection;fillColor=#F58534;gradientColor=none;" vertex="1" parent="1">
          <mxGeometry x="491" y="60" width="58.5" height="48" as="geometry" />
        </mxCell>
        <mxCell id="VKb4tAb5DwJ0hD_UQ2BQ-28" style="edgeStyle=orthogonalEdgeStyle;rounded=0;orthogonalLoop=1;jettySize=auto;html=1;exitX=0.8;exitY=1;exitDx=0;exitDy=0;exitPerimeter=0;" edge="1" parent="1" source="VKb4tAb5DwJ0hD_UQ2BQ-21" target="VKb4tAb5DwJ0hD_UQ2BQ-1">
          <mxGeometry relative="1" as="geometry" />
        </mxCell>
        <mxCell id="VKb4tAb5DwJ0hD_UQ2BQ-21" value="" style="outlineConnect=0;dashed=0;verticalLabelPosition=bottom;verticalAlign=top;align=center;html=1;shape=mxgraph.aws3.vpn_connection;fillColor=#F58534;gradientColor=none;" vertex="1" parent="1">
          <mxGeometry x="266" y="60" width="58.5" height="48" as="geometry" />
        </mxCell>
        <mxCell id="VKb4tAb5DwJ0hD_UQ2BQ-22" value="Sabanilla" style="text;html=1;resizable=0;autosize=1;align=center;verticalAlign=middle;points=[];fillColor=default;strokeColor=none;rounded=0;gradientColor=#CCFFFF;" vertex="1" parent="1">
          <mxGeometry x="260.25" y="30" width="70" height="30" as="geometry" />
        </mxCell>
        <mxCell id="VKb4tAb5DwJ0hD_UQ2BQ-23" value="Valle" style="text;html=1;resizable=0;autosize=1;align=center;verticalAlign=middle;points=[];fillColor=default;strokeColor=none;rounded=0;gradientColor=#CCFFFF;" vertex="1" parent="1">
          <mxGeometry x="348.75" y="30" width="50" height="30" as="geometry" />
        </mxCell>
        <mxCell id="VKb4tAb5DwJ0hD_UQ2BQ-24" value="Cucharas" style="text;html=1;resizable=0;autosize=1;align=center;verticalAlign=middle;points=[];fillColor=default;strokeColor=none;rounded=0;gradientColor=#CCFFFF;" vertex="1" parent="1">
          <mxGeometry x="408.25" y="30" width="70" height="30" as="geometry" />
        </mxCell>
        <mxCell id="VKb4tAb5DwJ0hD_UQ2BQ-25" value="Fumisa" style="text;html=1;resizable=0;autosize=1;align=center;verticalAlign=middle;points=[];fillColor=default;strokeColor=none;rounded=0;gradientColor=#CCFFFF;" vertex="1" parent="1">
          <mxGeometry x="490.25" y="30" width="60" height="30" as="geometry" />
        </mxCell>
        <mxCell id="VKb4tAb5DwJ0hD_UQ2BQ-33" style="edgeStyle=orthogonalEdgeStyle;rounded=0;orthogonalLoop=1;jettySize=auto;html=1;exitX=0.2;exitY=1;exitDx=0;exitDy=0;exitPerimeter=0;entryX=0.5;entryY=0;entryDx=0;entryDy=0;entryPerimeter=0;" edge="1" parent="1" source="VKb4tAb5DwJ0hD_UQ2BQ-26" target="VKb4tAb5DwJ0hD_UQ2BQ-1">
          <mxGeometry relative="1" as="geometry" />
        </mxCell>
        <mxCell id="VKb4tAb5DwJ0hD_UQ2BQ-26" value="" style="outlineConnect=0;dashed=0;verticalLabelPosition=bottom;verticalAlign=top;align=center;html=1;shape=mxgraph.aws3.vpn_connection;fillColor=#F58534;gradientColor=none;" vertex="1" parent="1">
          <mxGeometry x="566" y="60" width="58.5" height="48" as="geometry" />
        </mxCell>
        <mxCell id="VKb4tAb5DwJ0hD_UQ2BQ-27" value="Jerusalen" style="text;html=1;resizable=0;autosize=1;align=center;verticalAlign=middle;points=[];fillColor=default;strokeColor=none;rounded=0;gradientColor=#CCFFFF;" vertex="1" parent="1">
          <mxGeometry x="554.5" y="30" width="80" height="30" as="geometry" />
        </mxCell>
      </root>
    </mxGraphModel>
  </diagram>
</mxfile>
